<?xml version="1.0" encoding="UTF-8" standalone="no"?>
<!DOCTYPE svg PUBLIC "-//W3C//DTD SVG 1.1//EN"
 "http://www.w3.org/Graphics/SVG/1.1/DTD/svg11.dtd">
<!-- Generated by graphviz version 2.38.0 (20140413.2041)
 -->
<!-- Title: %3 Pages: 1 -->
<svg width="573pt" height="188pt"
 viewBox="0.00 0.00 573.00 188.00" xmlns="http://www.w3.org/2000/svg" xmlns:xlink="http://www.w3.org/1999/xlink">
<g id="graph0" class="graph" transform="scale(1 1) rotate(0) translate(4 184)">
<title>%3</title>
<polygon fill="white" stroke="none" points="-4,4 -4,-184 569,-184 569,4 -4,4"/>
<!-- todoapp -->
<g id="node1" class="node"><title>todoapp</title>
<polygon fill="#cccccc" stroke="black" points="388,-180 328,-180 328,-144 388,-144 388,-180"/>
<text text-anchor="middle" x="358" y="-158.3" font-family="Times,serif" font-size="14.00">todoapp</text>
</g>
<!-- TodoManagement -->
<g id="node2" class="node"><title>TodoManagement</title>
<polygon fill="#cccccc" stroke="black" points="252.5,-108 135.5,-108 135.5,-72 252.5,-72 252.5,-108"/>
<text text-anchor="middle" x="194" y="-86.3" font-family="Times,serif" font-size="14.00">TodoManagement</text>
</g>
<!-- todoapp&#45;&gt;TodoManagement -->
<g id="edge1" class="edge"><title>todoapp&#45;&gt;TodoManagement</title>
<path fill="none" stroke="black" d="M327.92,-148.161C303.83,-137.879 269.585,-123.262 241.755,-111.383"/>
<ellipse fill="black" stroke="black" cx="237.768" cy="-109.682" rx="4.00001" ry="4.00001"/>
</g>
<!-- TodoFields -->
<g id="node6" class="node"><title>TodoFields</title>
<polygon fill="#cccccc" stroke="black" points="397,-108 319,-108 319,-72 397,-72 397,-108"/>
<text text-anchor="middle" x="358" y="-86.3" font-family="Times,serif" font-size="14.00">TodoFields</text>
</g>
<!-- todoapp&#45;&gt;TodoFields -->
<g id="edge5" class="edge"><title>todoapp&#45;&gt;TodoFields</title>
<path fill="none" stroke="black" d="M358,-143.697C358,-135.389 358,-125.277 358,-116.141"/>
<ellipse fill="black" stroke="black" cx="358" cy="-112.104" rx="4" ry="4"/>
</g>
<!-- Filter -->
<g id="node9" class="node"><title>Filter</title>
<polygon fill="white" stroke="black" points="531,-108 477,-108 477,-72 531,-72 531,-108"/>
<text text-anchor="middle" x="504" y="-86.3" font-family="Times,serif" font-size="14.00">Filter</text>
</g>
<!-- todoapp&#45;&gt;Filter -->
<g id="edge8" class="edge"><title>todoapp&#45;&gt;Filter</title>
<path fill="none" stroke="black" d="M388.251,-146.496C411.868,-135.173 444.701,-119.431 469.368,-107.604"/>
<ellipse fill="none" stroke="black" cx="473.135" cy="-105.798" rx="4.00002" ry="4.00002"/>
</g>
<!-- TodoList -->
<g id="node3" class="node"><title>TodoList</title>
<polygon fill="white" stroke="black" points="66,-36 0,-36 0,-0 66,-0 66,-36"/>
<text text-anchor="middle" x="33" y="-14.3" font-family="Times,serif" font-size="14.00">TodoList</text>
</g>
<!-- TodoManagement&#45;&gt;TodoList -->
<g id="edge2" class="edge"><title>TodoManagement&#45;&gt;TodoList</title>
<path fill="none" stroke="black" d="M154.615,-71.8761C129.98,-61.1653 98.3232,-47.4014 73.4835,-36.6015"/>
<ellipse fill="black" stroke="black" cx="69.6771" cy="-34.9466" rx="4.00002" ry="4.00002"/>
</g>
<!-- AddTodo -->
<g id="node4" class="node"><title>AddTodo</title>
<polygon fill="white" stroke="black" points="152,-36 84,-36 84,-0 152,-0 152,-36"/>
<text text-anchor="middle" x="118" y="-14.3" font-family="Times,serif" font-size="14.00">AddTodo</text>
</g>
<!-- TodoManagement&#45;&gt;AddTodo -->
<g id="edge3" class="edge"><title>TodoManagement&#45;&gt;AddTodo</title>
<path fill="none" stroke="black" d="M175.213,-71.6966C165.366,-62.6264 153.182,-51.4045 142.592,-41.6504"/>
<ellipse fill="black" stroke="black" cx="139.513" cy="-38.8143" rx="4.00002" ry="4.00002"/>
</g>
<!-- MarkTodoDone -->
<g id="node5" class="node"><title>MarkTodoDone</title>
<polygon fill="white" stroke="black" points="274,-36 170,-36 170,-0 274,-0 274,-36"/>
<text text-anchor="middle" x="222" y="-14.3" font-family="Times,serif" font-size="14.00">MarkTodoDone</text>
</g>
<!-- TodoManagement&#45;&gt;MarkTodoDone -->
<g id="edge4" class="edge"><title>TodoManagement&#45;&gt;MarkTodoDone</title>
<path fill="none" stroke="black" d="M200.921,-71.6966C204.312,-63.2198 208.455,-52.8636 212.167,-43.5826"/>
<ellipse fill="black" stroke="black" cx="213.673" cy="-39.8182" rx="4.00001" ry="4.00001"/>
</g>
<!-- LabelField -->
<g id="node7" class="node"><title>LabelField</title>
<polygon fill="white" stroke="black" points="367.5,-36 292.5,-36 292.5,-0 367.5,-0 367.5,-36"/>
<text text-anchor="middle" x="330" y="-14.3" font-family="Times,serif" font-size="14.00">LabelField</text>
</g>
<!-- TodoFields&#45;&gt;LabelField -->
<g id="edge6" class="edge"><title>TodoFields&#45;&gt;LabelField</title>
<path fill="none" stroke="black" d="M351.079,-71.6966C347.688,-63.2198 343.545,-52.8636 339.833,-43.5826"/>
<ellipse fill="black" stroke="black" cx="338.327" cy="-39.8182" rx="4.00001" ry="4.00001"/>
</g>
<!-- DescriptionField -->
<g id="node8" class="node"><title>DescriptionField</title>
<polygon fill="white" stroke="black" points="492.5,-36 385.5,-36 385.5,-0 492.5,-0 492.5,-36"/>
<text text-anchor="middle" x="439" y="-14.3" font-family="Times,serif" font-size="14.00">DescriptionField</text>
</g>
<!-- TodoFields&#45;&gt;DescriptionField -->
<g id="edge7" class="edge"><title>TodoFields&#45;&gt;DescriptionField</title>
<path fill="none" stroke="black" d="M378.022,-71.6966C388.616,-62.5417 401.746,-51.1945 413.106,-41.3773"/>
<ellipse fill="none" stroke="black" cx="416.181" cy="-38.7198" rx="4.00002" ry="4.00002"/>
</g>
<!-- Search -->
<g id="node10" class="node"><title>Search</title>
<polygon fill="white" stroke="black" points="565,-36 511,-36 511,-0 565,-0 565,-36"/>
<text text-anchor="middle" x="538" y="-14.3" font-family="Times,serif" font-size="14.00">Search</text>
</g>
<!-- Filter&#45;&gt;Search -->
<g id="edge9" class="edge"><title>Filter&#45;&gt;Search</title>
<path fill="none" stroke="black" d="M512.404,-71.6966C516.563,-63.135 521.653,-52.6562 526.195,-43.3045"/>
<ellipse fill="none" stroke="black" cx="527.945" cy="-39.7024" rx="4.00002" ry="4.00002"/>
</g>
</g>
</svg>
